<?xml version="1.0" encoding="utf-8"?>
<!-- Generator: Adobe Illustrator 21.0.0, SVG Export Plug-In . SVG Version: 6.00 Build 0)  -->
<svg version="1.1" id="Layer_1" xmlns="http://www.w3.org/2000/svg" xmlns:xlink="http://www.w3.org/1999/xlink" x="0px" y="0px"
	 viewBox="0 0 801 801" style="enable-background:new 0 0 801 801;" xml:space="preserve">
<g>
	<path d="M400.5,318.4c63.3,0,118.9,32.7,151,82.1c18.3-28.2,29-61.8,29-97.9c0-99.4-80.6-180.1-180.1-180.1
		c-99.4,0-180.1,80.6-180.1,180.1c0,36.1,10.7,69.8,29,97.9C281.6,351.1,337.2,318.4,400.5,318.4z"/>
	<path d="M400.5,482.6c-63.3,0-118.9-32.7-151-82.1c-18.3,28.2-29,61.8-29,97.9c0,99.4,80.6,180.1,180.1,180.1
		c99.4,0,180.1-80.6,180.1-180.1c0-36.1-10.7-69.8-29-97.9C519.4,449.9,463.8,482.6,400.5,482.6z"/>
</g>
</svg>
