<svg height="172" viewBox="0 0 397 172" width="397" xmlns="http://www.w3.org/2000/svg"><g fill="none" fill-rule="evenodd"><path d="m102.279127 85.9505119c-9.916968-15.6356893-27.1034137-25.9856115-46.6598708-25.9856115-19.5558391 0-36.7422848 10.3499222-46.65925324 25.9856115 9.91696844 15.6356891 27.10341414 25.9856111 46.65925324 25.9856111 19.5564571 0 36.7429028-10.349922 46.6598708-25.9856111z" fill="#00022c"/><path d="m55.6192562 60.5837209c19.5564571 0 36.7429028 10.1127338 46.6598708 25.3916546 5.6596-8.7206474 8.959694-19.1173669 8.959694-30.2917985 0-30.7533525-24.9014969-55.68345326-55.6195648-55.68345326-30.7174499 0-55.6195652 24.93010076-55.6195652 55.68345326 0 11.1744316 3.3007122 21.5711511 8.96031196 30.2917985 9.91696844-15.2789208 27.10341414-25.3916546 46.65925324-25.3916546" fill="#f00"/><path d="m55.6192562 111.366783c-19.5558391 0-36.7422848-10.113353-46.65925324-25.3916549-5.65959976 8.7206474-8.96031196 19.1173669-8.96031196 30.2917989 0 30.752733 24.9021153 55.683453 55.6195652 55.683453 30.7180679 0 55.6195648-24.93072 55.6195648-55.683453 0-11.174432-3.300094-21.5711515-8.959694-30.2917989-9.916968 15.2783019-27.1034137 25.3916549-46.6598708 25.3916549" fill="#4bf6d7"/><g fill="#00022c" transform="translate(145 46)"><path d="m46.4830427 46.4934855c0-5.1548341-3.4618736-10.4505107-8.9180144-10.4505107-6.0848888 0-10.8058414 6.3482261-10.8058414 12.4488868 0 5.1544374 3.4618737 10.5564401 8.9176187 10.5564401 6.0848888 0 10.8062371-6.4529652 10.8062371-12.5548162zm-25.9215156 27.1393508h-20.5615271l7.76339698-73.6328363h20.56271412l-3.1480931 29.13733c2.5177622-4.3125565 8.917223-9.0460535 17.4162038-9.0460535 12.169382 0 20.982539 9.5705429 20.982539 24.5093657 0 17.7766992-12.3798879 30.3993578-26.5427456 30.3993578-8.6030468 0-14.0587918-4.7342904-15.6328384-9.1519829z"/><path d="m77.7453215 41.3096871h17.7466523c.5220762-5.4103176-2.6107745-8.7382044-8.0398154-8.7382044-5.2176119 0-9.1859419 3.224295-9.7068369 8.7382044zm-1.1488825 9.8832078c-.5224699 5.2019568 1.4614982 9.5708628 8.2473072 9.5708628 4.3837074 0 7.6212883-1.8725004 8.8729324-5.1999949h19.8333824c-2.921816 10.714689-13.8814779 18.6210198-29.7496797 18.6210198-17.6431033 0-27.5594006-9.779616-27.5594006-24.6564197 0-16.0229843 11.5876497-29.9631455 32.5695206-29.9631455 17.9541437 0 26.9318067 10.3003217 26.9318067 22.2647831 0 2.2880448-.311041 5.2023492-1.460317 9.3628944z"/><path d="m174.992507 73.3695652 2.818874-26.9631846c.626241-5.9332277-.939756-9.0559172-5.32699-9.0559172-3.968165 0-6.994999 2.6020449-7.831169 10.2004715l-2.713712 25.8186303h-19.4253l2.819662-26.9631846c.626241-5.9332277-.835776-9.0559172-5.221829-9.0559172-4.071751 0-7.204533 2.70531-8.040703 10.8247738l-2.610127 25.194328h-19.424512l5.430971-51.7397405h19.423329l-.730221 7.5996044c3.029197-5.2056603 8.666945-8.8489943 16.604062-8.8489943 7.727189 0 12.425575 3.4352332 13.99236 9.3700315 3.655044-5.5174188 9.1896-9.3700315 17.962494-9.3700315 14.2015 0 16.290153 10.2016493 15.037277 21.9664103l-3.237944 31.0227201z"/><path d="m213.864621 41.3096871h17.745395c.522456-5.4103176-2.607949-8.7382044-8.03724-8.7382044-5.219049 0-9.186093 3.224295-9.708155 8.7382044zm-1.147671 9.8832078c-.522456 5.2019568 1.460672 9.5708628 8.247089 9.5708628 4.383591 0 7.619512-1.8725004 8.871123-5.1999949h19.835219c-2.923706 10.714689-13.883472 18.6210198-29.751254 18.6210198-17.642636 0-27.558671-9.779616-27.558671-24.6564197 0-16.0229843 11.587737-29.9631455 32.568658-29.9631455 17.955638 0 26.932669 10.3003217 26.932669 22.2647831 0 2.2880448-.312607 5.2023492-1.461853 9.3628944z"/></g></g></svg>