<svg height="384pt" viewBox="0 0 384 384" width="384pt" xmlns="http://www.w3.org/2000/svg"><path d="m192 224h173.039062c-4.238281 23.28125-13.039062 44.878906-25.519531 64h-147.519531zm0 0" fill="#ff8a65"/><path d="m365.039062 160h-173.039062v-64h147.519531c12.480469 19.121094 21.28125 40.71875 25.519531 64zm0 0" fill="#ff8a65"/><g fill="#ff7043"><path d="m365.039062 160c2 10.398438 2.960938 21.039062 2.960938 32s-.960938 21.601562-2.960938 32h-173.039062v-64zm0 0"/><path d="m339.519531 96h-147.519531v-80c61.761719 0 116.160156 31.839844 147.519531 80zm0 0"/><path d="m192 288h147.519531c-31.359375 48.160156-85.757812 80-147.519531 80zm0 0"/></g><path d="m192 288v80c-97.199219 0-176-78.800781-176-176s78.800781-176 176-176zm0 0" fill="#4dd0e1"/><path d="m380.726562 156.894531c-.023437-.109375-.054687-.222656-.078124-.335937-4.601563-24.816406-13.914063-48.132813-27.71875-69.292969-.035157-.058594-.074219-.105469-.113282-.160156-.023437-.042969-.054687-.074219-.082031-.113281-35.613281-54.472657-95.664063-86.992188-160.734375-86.992188-105.871094 0-192 86.136719-192 192s86.128906 192 192 192c65.0625 0 125.113281-32.519531 160.726562-86.976562.035157-.046876.074219-.09375.105469-.144532.03125-.046875.0625-.085937.097657-.136718 13.855468-21.238282 23.191406-44.628907 27.742187-69.375.015625-.070313.039063-.152344.054687-.222657.007813-.039062.027344-.082031.027344-.121093 2.148438-11.207032 3.246094-22.992188 3.246094-35.023438s-1.097656-23.816406-3.214844-34.863281c-.015625-.082031-.042968-.160157-.058594-.242188zm-50.359374 115.105469h-122.367188v-32h136.511719c-3.488281 11.152344-8.238281 21.832031-14.144531 32zm-122.367188-160h122.367188c5.898437 10.152344 10.648437 20.824219 14.136718 32h-136.503906zm0-32v-47.128906c37.503906 3.730468 72.136719 20.433594 98.246094 47.128906zm0 224h98.246094c-26.101563 26.695312-60.734375 43.398438-98.246094 47.128906zm0-96v-32h143.160156c.519532 5.238281.839844 10.566406.839844 16 0 5.425781-.3125 10.753906-.847656 16zm-176-16c0-82.824219 63.265625-151.136719 144-159.191406v318.375c-80.734375-8.046875-144-76.359375-144-159.183594zm0 0" fill="#012e52"/></svg>