<svg height="384pt" viewBox="0 0 384 384" width="384pt" xmlns="http://www.w3.org/2000/svg"><path d="m368 48v288c0 17.679688-14.320312 32-32 32h-288c-8.800781 0-16.800781-3.601562-22.640625-9.359375l333.28125-333.28125c5.757813 5.839844 9.359375 13.839844 9.359375 22.640625zm0 0" fill="#4dd0e1"/><path d="m358.640625 25.359375-333.28125 333.28125c-5.757813-5.839844-9.359375-13.839844-9.359375-22.640625v-288c0-17.679688 14.320312-32 32-32h288c8.800781 0 16.800781 3.601562 22.640625 9.359375zm0 0" fill="#ff7043"/><g fill="#012e52"><path d="m369.953125 14.046875c-.007813-.007813-.023437-.015625-.03125-.023437-.019531-.015626-.035156-.039063-.058594-.054688-9.128906-9.007812-21.160156-13.96875-33.863281-13.96875h-288c-26.472656 0-48 21.527344-48 48v288c0 12.703125 4.960938 24.734375 13.960938 33.863281.054687.066407.109374.121094.167968.167969 9.136719 9.007812 21.167969 13.96875 33.871094 13.96875h288c26.472656 0 48-21.527344 48-48v-288c0-12.625-4.902344-24.566406-13.960938-33.839844-.03125-.039062-.054687-.082031-.085937-.113281zm-321.953125 17.953125h281.375l-297.375 297.375v-281.375c0-8.824219 7.175781-16 16-16zm288 320h-281.375l297.375-297.375v281.375c0 8.824219-7.175781 16-16 16zm0 0"/><path d="m72 136h32v32c0 8.832031 7.167969 16 16 16s16-7.167969 16-16v-32h32c8.832031 0 16-7.167969 16-16s-7.167969-16-16-16h-32v-32c0-8.832031-7.167969-16-16-16s-16 7.167969-16 16v32h-32c-8.832031 0-16 7.167969-16 16s7.167969 16 16 16zm0 0"/><path d="m312 248h-96c-8.832031 0-16 7.167969-16 16s7.167969 16 16 16h96c8.832031 0 16-7.167969 16-16s-7.167969-16-16-16zm0 0"/></g></svg>