<svg height="384pt" viewBox="0 0 384 384" width="384pt" xmlns="http://www.w3.org/2000/svg"><path d="m48 16h288c17.671875 0 32 14.328125 32 32v288c0 17.671875-14.328125 32-32 32h-288c-17.671875 0-32-14.328125-32-32v-288c0-17.671875 14.328125-32 32-32zm0 0" fill="#e0f7fa"/><path d="m232 152c0 22.089844-17.910156 40-40 40s-40-17.910156-40-40 17.910156-40 40-40 40 17.910156 40 40zm0 0" fill="#4dd0e1"/><path d="m168 192h48c26.511719 0 48 21.488281 48 48v32h-144v-32c0-26.511719 21.488281-48 48-48zm0 0" fill="#ff7043"/><g fill="#012e52"><path d="m16 144c8.832031 0 16-7.167969 16-16v-80c0-8.824219 7.175781-16 16-16h80c8.832031 0 16-7.167969 16-16s-7.167969-16-16-16h-80c-26.472656 0-48 21.527344-48 48v80c0 8.832031 7.167969 16 16 16zm0 0"/><path d="m48 384h80c8.832031 0 16-7.167969 16-16s-7.167969-16-16-16h-80c-8.824219 0-16-7.175781-16-16v-80c0-8.832031-7.167969-16-16-16s-16 7.167969-16 16v80c0 26.472656 21.527344 48 48 48zm0 0"/><path d="m336 0h-80c-8.832031 0-16 7.167969-16 16s7.167969 16 16 16h80c8.824219 0 16 7.175781 16 16v80c0 8.832031 7.167969 16 16 16s16-7.167969 16-16v-80c0-26.472656-21.527344-48-48-48zm0 0"/><path d="m368 240c-8.832031 0-16 7.167969-16 16v80c0 8.824219-7.175781 16-16 16h-80c-8.832031 0-16 7.167969-16 16s7.167969 16 16 16h80c26.472656 0 48-21.527344 48-48v-80c0-8.832031-7.167969-16-16-16zm0 0"/><path d="m144.007812 180.710938c-23.421874 9.511718-40.007812 32.488281-40.007812 59.289062v32c0 8.832031 7.167969 16 16 16s16-7.167969 16-16v-32c0-17.648438 14.351562-32 32-32h48c17.648438 0 32 14.351562 32 32v32c0 8.832031 7.167969 16 16 16s16-7.167969 16-16v-32c0-26.800781-16.585938-49.777344-40.007812-59.289062 5.046874-8.40625 8.007812-18.207032 8.007812-28.710938 0-30.878906-25.128906-56-56-56-30.878906 0-56 25.121094-56 56 0 10.503906 2.960938 20.304688 8.007812 28.710938zm47.992188-52.710938c13.230469 0 24 10.769531 24 24s-10.769531 24-24 24-24-10.769531-24-24 10.769531-24 24-24zm0 0"/></g></svg>